<?xml version="1.0" encoding="utf-8"?>
<!-- Generator: Adobe Illustrator 24.0.2, SVG Export Plug-In . SVG Version: 6.00 Build 0)  -->
<svg version="1.1" id="Capa_1" xmlns="http://www.w3.org/2000/svg" xmlns:xlink="http://www.w3.org/1999/xlink" x="0px" y="0px"
	 viewBox="0 0 841.89 595.28" style="enable-background:new 0 0 841.89 595.28;" xml:space="preserve">
<path d="M303.29,356.26c21.49,0,40.41,0,59.64,0c1.77-7.23-7.55-11.05-5.94-19.5c13.33,0,26.76,0.24,40.17-0.11
	c5.88-0.15,9.25,2.12,12.07,7.14c10.46,18.62,21.29,37.04,32.72,56.81c-71.95,0-142.59,0-215.41,0
	c62.99-109.09,125.51-217.37,188.83-327.04c39.59,68.61,78.13,135.03,116.19,201.72c5.5,9.64,11.01,16.82,23.33,14.14
	c9.36-2.04,14.47,2.75,18.52,10.64c5.4,10.54,11.67,20.65,19.21,33.82c-25.7,0-49.59,0.15-73.48-0.09
	c-7.9-0.08-9.14-7.79-12.06-12.81c-30.13-51.79-59.98-103.74-91.65-158.67C377.74,227.48,341.06,290.93,303.29,356.26z"/>
<path d="M416.92,209c16.32,28.04,31.89,54.76,47.41,81.5c10.49,18.09,21.52,35.9,31.06,54.48c4.67,9.1,10.53,11.37,20.05,11.17
	c27.18-0.57,54.41,0.58,81.55-0.55c12.12-0.5,18.59,3.75,23.47,14.11c4.51,9.6,10.42,18.55,17.28,30.54c-10.77,0-19.43,0-28.09,0
	c-38.52,0-77.05-0.54-115.56,0.31c-12.75,0.28-20.04-3.03-26.49-14.77c-22.3-40.6-45.82-80.54-69.47-120.38
	c-5.22-8.79-6.21-15.79-0.22-24.46C404.54,231.36,409.93,220.89,416.92,209z"/>
</svg>
